<svg width="199" height="170" viewBox="0 0 199 170" fill="none" xmlns="http://www.w3.org/2000/svg">
<path fill-rule="evenodd" clip-rule="evenodd" d="M103.567 61.896C110.903 64.728 146.7 34.872 144.855 37.0387C136.483 46.8693 131.616 55.504 125.56 67.3267C124.664 69.0773 122.26 73.6707 123.373 76.1053C124.637 78.872 164.94 88.7507 168.36 89.3307C169.583 89.5387 121.747 97.1496 120.571 99.572C118.245 104.371 151.035 142.093 149.944 141.269C146.596 138.751 143.255 136.224 139.936 133.657C126.507 123.275 104.829 111.368 102.448 112.267C93.356 115.701 85.868 149.571 85.2387 153.205C85.0787 154.134 86.7427 104.526 77.3893 105.445C75.2613 105.655 28.0627 121.544 28.8987 120.993C31.872 119.043 34.868 117.125 37.9627 115.416C46.5187 110.687 71.5174 93.2067 71.1707 92.4173C69.9694 89.7013 22.0693 74.2453 19.2187 72.5187C18.2133 71.9107 72.9413 71.268 72.7773 70.9653C67.2293 60.7467 51.9507 26.9747 51.9507 26.9747C51.9507 26.9747 83.5387 59.6547 85.0587 59.4587C86.8507 59.228 87.1147 53.044 87.2293 52.2773C88.212 45.7173 91.576 27.552 92.1933 25.0093C92.4773 23.844 92.1813 20.6587 92.9853 21.4933C94.8067 23.388 97.7547 59.6533 103.567 61.896Z" fill="#F57623"/>
<path fill-rule="evenodd" clip-rule="evenodd" d="M138.744 3.12799L138.707 3.22L138.409 3.82933L137.935 4.80934L137.724 5.22933L137.023 6.62534L136.611 7.45467L136.317 8.02134L135.6 9.41466L134.884 10.8133L134.168 12.2147L133.453 13.6187L132.023 16.4373L131.272 17.9187L130.577 19.256L129.845 20.66L129.113 22.0693L128.376 23.4773L128.023 24.1507L127.621 24.876L126.851 26.2667L126.079 27.6573L125.303 29.0453L125.096 29.4147L124.477 30.408L124.053 31.0853L123.631 31.7613L123.209 32.4347L122.784 33.1093L122.775 33.128L122.34 33.7707L121.895 34.4333L121.449 35.0947L121.004 35.756L120.56 36.4147L120.303 36.796L120.109 37.0707L119.652 37.7213L119.195 38.376L118.739 39.0253L118.284 39.6747L117.833 40.3253L117.379 40.976L116.928 41.624L116.477 42.272L116.328 42.4893L116 42.904L115.509 43.5293L115.029 44.1547L114.555 44.784L114.081 45.4133L113.616 46.044L113.177 46.2107L113.117 45.7453L113.451 45.0387L113.776 44.324L114.091 43.6053L114.396 42.8813L114.692 42.1507L114.883 41.66L114.993 41.424L115.32 40.7107L115.64 39.9933L115.957 39.2747L116.271 38.5533L116.577 37.8307L116.883 37.1027L117.181 36.3747L117.477 35.6427L117.601 35.332L117.779 34.9133L118.08 34.1853L118.38 33.456L118.676 32.724L118.969 31.9907L119.252 31.2747L119.26 31.256L119.571 30.5307L119.883 29.804L120.189 29.0773L120.495 28.3493L120.941 27.276L121.119 26.8973L121.784 25.4667L122.448 24.0347L123.109 22.5987L123.452 21.8453L123.781 21.1667L124.467 19.7413L125.151 18.316L125.836 16.888L126.484 15.5307L127.215 14.0387L128.608 11.1987L129.305 9.77866L130.005 8.36133L130.705 6.94533L131.408 5.532L131.697 4.956L132.127 4.12668L132.856 2.72933L133.079 2.30934L133.605 1.34533L133.936 0.744009L133.991 0.657339L134.403 -1.39282e-06L136.344 0.999999L137.113 1.4L139.047 2.41733L138.744 3.12799Z" fill="#FAB31C"/>
<path fill-rule="evenodd" clip-rule="evenodd" d="M108.147 55.28L108.444 55.636L108.849 56.116L108.848 56.1187L108.665 56.5627L108.481 57.0094L108.3 57.4547L107.937 58.352L107.923 58.3854L107.541 59.2387L106.747 61.0174L106.475 61.6187L106.34 61.9067L106.127 62.3494L105.915 62.792L105.701 63.2334L105.485 63.6774L105.268 64.1187L105.049 64.56L104.827 65L104.603 65.44L104.376 65.8787L104.145 66.3174L103.913 66.756L103.679 67.1907L103.608 67.32L103.4 67.604L103.107 68.0094L102.811 68.412L102.645 68.636L102.507 68.812L102.193 69.204L101.884 69.592L100.648 69.984L100.36 68.72L100.532 68.264L100.693 67.808L100.763 67.604L100.856 67.3547L101.019 66.9027L101.176 66.4454L101.284 66.124L101.344 65.9974L101.548 65.5667L101.748 65.1334L101.947 64.6987L102.143 64.2627L102.336 63.824L102.527 63.384L102.717 62.9414L102.903 62.4987L103.092 62.0547L103.276 61.6094L103.459 61.1627L103.641 60.716L103.76 60.4254L104.019 59.8227L104.781 58.0334L105.151 57.1694L105.165 57.136L105.587 56.2547L105.8 55.8134L106.013 55.372L106.229 54.9307V54.928L106.861 54.916L107.323 54.9054L107.345 54.904L108.133 55.2627L108.147 55.28Z" fill="#FAB31C"/>
<path fill-rule="evenodd" clip-rule="evenodd" d="M198.649 40.3854L198.577 40.4387L197.977 40.8907L197.319 41.4147L196.671 41.9587L196.584 42.0334L196.023 42.5014L195.383 43.056L195.191 43.228L194.733 43.5907L194.08 44.1174L193.981 44.2014L193.395 44.5854L192.703 45.0414L192.012 45.5027L191.876 45.5947L191.309 45.9414L190.607 46.3787L189.901 46.82L189.325 47.1827L189.197 47.2574L188.481 47.6774L187.765 48.0987L187.052 48.524L186.339 48.9494L184.908 49.804L184.572 50.0067L183.428 50.5747L181.936 51.324L181.831 51.3774L180.409 52.0227L180.321 52.064L179.223 52.512L178.811 52.596L177.121 53.016L177.071 53.0307L175.487 53.5147L174.743 53.6134L175.184 53.008L176.365 51.8467L176.401 51.8094L177.568 50.5227L177.836 50.1987L178.745 49.4414L178.824 49.3814L180.063 48.432L180.156 48.364L181.523 47.396L182.568 46.6547L182.905 46.4507L184.344 45.5987L185.068 45.172L185.791 44.7467L186.515 44.3227L187.24 43.9014L187.371 43.824L187.979 43.4987L188.719 43.104L189.461 42.7107L190.059 42.396L190.209 42.324L190.971 41.9654L191.732 41.6067L192.379 41.3067L192.504 41.264L193.309 40.9894L193.869 40.7974L194.121 40.7267L194.947 40.4934L195.657 40.2827L195.767 40.2534L196.589 40.024L197.404 39.7814L198.124 39.556L198.211 39.5307L198.857 39.7387L198.649 40.3854Z" fill="#FAB31C"/>
<path fill-rule="evenodd" clip-rule="evenodd" d="M165.012 58.028L165.344 58.828L165.284 60.4347L162.665 61.692L162.475 61.7827L159.368 63.06L152.765 65.78L150.2 66.8387L146.148 68.4707L142.449 69.9613L139.501 71.0907L135.392 72.6693L128.276 75.1667L126.035 75.9253L120.795 77.74L119.272 78.2667L112.536 80.676L111.755 80.6307L112.273 80.044L118.729 76.9653L120.177 76.2547L125.159 73.8187L127.273 72.7613L134.063 69.472L138.077 67.6693L140.957 66.3773L144.623 64.804L148.639 63.084L151.2 62.012L157.792 59.26L160.895 57.964L161.093 57.8947L163.835 56.9347L165.012 58.028Z" fill="#FAB31C"/>
<path fill-rule="evenodd" clip-rule="evenodd" d="M20.628 101.129L19.9973 101.28L19.364 101.436L18.9667 101.536L18.732 101.599L18.1013 101.769L17.4693 101.946L16.8893 102.115L16.84 102.141L15.7907 102.734L15.616 102.836L14.648 103.428L14.384 103.489L13.3707 103.728L13.116 103.773L11.84 103.996L11.7187 104.019L10.5653 104.176L9.93066 104.264L9.29466 104.353L8.65999 104.445L8.30797 104.497L8.02666 104.532L7.39466 104.612L6.76133 104.695L6.132 104.777L5.50133 104.865L4.87334 104.955L4.24798 105.048L4.17865 105.059L3.61732 105.119L2.98932 105.189L2.36133 105.263L2.20133 105.283L1.72933 105.308L1.39733 105.328L1.09066 105.317L0.775977 105.309L0.161328 103.832L0 102.98L0.0400065 101.38L0.340006 101.256L0.636003 101.134L0.968001 101.034L1.44264 100.895L1.60931 100.859L2.25465 100.719L2.9 100.584L3.47598 100.467L3.54665 100.456L4.19733 100.357L4.84665 100.263L5.49867 100.171L6.14798 100.083L6.79733 99.9975L7.44665 99.9131L7.73333 99.8772L8.096 99.8401L8.74531 99.7745L9.39466 99.7131L10.0453 99.6521L11.2133 99.5439L11.3387 99.5387L12.636 99.4761L12.896 99.4625L13.9373 99.4735L14.208 99.4761L15.2773 99.8401L15.4707 99.8975L16.62 100.243L16.6733 100.257L17.2746 100.287L17.9267 100.311L18.576 100.327L18.8173 100.329H19.2267L19.872 100.321L20.52 100.308L21.0533 100.655L20.628 101.129Z" fill="#FAB31C"/>
<path fill-rule="evenodd" clip-rule="evenodd" d="M72.9373 95.5267L72.0627 96.3172L69.9213 96.4907L68.848 96.5866L67.776 96.6839L67.32 96.7256L66.7 96.7787L65.624 96.8762L64.5493 96.9762L63.4733 97.0797L63.132 97.1131L62.396 97.1745L61.3186 97.2667L60.2413 97.3652L59.2773 97.4573L59.1653 97.4641L58.0867 97.5376L57.0093 97.6147L55.9333 97.6975L54.856 97.7814L54.7707 97.7891L53.7813 97.86L52.7053 97.9412L52.1693 97.9839L51.632 98.0292L51.0947 98.0735L50.56 98.1199L50.0227 98.1677L49.6186 98.2053L49.488 98.2163L48.952 98.2641L48.4173 98.3131L47.8826 98.3615L47.348 98.4147L46.8146 98.4667L46.2826 98.5215L45.748 98.5787L45.216 98.6376L44.684 98.6959L44.1533 98.7589L43.6213 98.8215L43.0907 98.8855L42.5627 98.9532L42.032 99.0215L41.504 99.0933L41.2627 99.1251L40.976 99.1548L40.4466 99.212L39.916 99.272L39.8453 99.2797L39.3867 99.3215L38.8547 99.372L38.52 99.4053L38.2733 99.0907L37.6307 98.4693L37.4947 97.612L37.912 96.8215L38.0547 96.4453L38.3907 96.3735L38.924 96.26L39.388 96.1625L39.4573 96.1521L39.9947 96.0547L40.5307 95.9627L40.824 95.9133L41.068 95.8787L41.6106 95.808L42.1506 95.7373L42.6907 95.6693L43.2333 95.6027L43.7746 95.5387L44.3173 95.476L44.8587 95.4147L45.4013 95.356L45.9453 95.3L46.4893 95.2427L47.032 95.188L47.576 95.1373L48.1186 95.0867L48.664 95.036L49.2093 94.988L49.3413 94.9773L49.7533 94.9453L50.2987 94.904L50.8426 94.864L51.3893 94.8253L51.9347 94.7894L52.48 94.7533L53.5693 94.6853L54.5733 94.628L54.6613 94.624L55.7533 94.5814L56.8426 94.5413L57.9347 94.504L59.024 94.4734L59.1373 94.4707L60.116 94.4734L61.2053 94.4814L62.2933 94.488L63.0373 94.4947L63.3813 94.504L64.468 94.5347L65.5547 94.564L66.636 94.596L67.26 94.6133L67.7186 94.6307L68.7973 94.6693L69.876 94.7093L72.0253 94.7814L72.9373 95.5267Z" fill="#FAB31C"/>
<path fill-rule="evenodd" clip-rule="evenodd" d="M28.392 40.2627L29.0466 40.792L29.704 41.3214L30.3653 41.848L30.4253 41.8947L31.0133 42.3894L31.6667 42.932L32.32 43.4707L32.9413 43.98L32.976 44.0107L33.6226 44.56L34.2733 45.1094L34.9266 45.6574L35.5826 46.204L36.2413 46.748L36.9013 47.2907L37.5653 47.8333L38.232 48.372L38.9 48.912L39.5707 49.448L39.876 49.6894L40.24 49.9867L40.9093 50.528L41.5813 51.0693L42.2546 51.6054L42.9293 52.1427L43.6067 52.6774L44.1093 53.0734L44.2826 53.216L44.952 53.7613L45.624 54.3054L46.2987 54.8467L46.9733 55.3867L47.6506 55.9267L48.1333 56.308L48.324 56.4693L48.9893 57.024L49.6573 57.576L50.3253 58.128L50.9946 58.6774L51.6653 59.2267L52.336 59.772L53.008 60.3187L53.6813 60.8613L53.8973 61.0347L54.3533 61.4067L55.024 61.9547L55.6946 62.5L56.368 63.044L57.04 63.5853L57.7133 64.124L58.388 64.6613L59.736 65.732L60.82 66.5867L61.0853 66.796L62.432 67.8574L63.7786 68.9107L65.124 69.956L66.468 70.9934L67.8106 72.024L69.152 73.044L69.5347 74.8507L67.7093 75.128L66.28 74.2293L64.8426 73.3267L63.4 72.4213L61.952 71.5094L60.5013 70.5934L59.0453 69.6734L58.756 69.4907L57.5893 68.744L56.1333 67.8067L55.4027 67.3347L54.6733 66.8653L53.9426 66.392L53.212 65.9173L52.48 65.4414L51.7493 64.9653L51.252 64.64L51.02 64.4853L50.2946 63.9973L49.5693 63.5094L48.8426 63.02L48.1186 62.528L47.396 62.036L46.672 61.5414L45.948 61.044L45.2253 60.5467L45.016 60.404L44.512 60.0347L43.8067 59.5133L43.1013 58.992L42.396 58.4693L41.6933 57.9427L40.992 57.4173L40.8106 57.28L40.2987 56.8787L39.6106 56.336L38.9226 55.792L38.236 55.2453L37.5533 54.6973L36.8707 54.148L36.4987 53.8453L36.1933 53.592L35.5213 53.032L34.852 52.4693L34.184 51.904L33.5186 51.3387L32.856 50.7693L32.1947 50.2L31.5373 49.6293L30.8826 49.056L30.2293 48.4813L29.5786 47.9054L29.5453 47.8747L28.944 47.3147L28.3133 46.7187L27.6826 46.124L27.1146 45.5813L27.06 45.5254L26.4533 44.908L25.8506 44.2894L25.252 43.6693L25.0053 43.4133L25.0093 42.6653L24.9093 41.524L24.6653 40.5453L24.6466 39.9333L25.26 39.9147L26.2466 40.0973L27.3866 40.1107L28.1213 40.04L28.392 40.2627Z" fill="#FAB31C"/>
<path fill-rule="evenodd" clip-rule="evenodd" d="M112.376 120.981L112.392 121.359L112.409 121.729L112.431 122.1L112.455 122.471L112.483 122.84L112.515 123.209L112.549 123.577L112.587 123.945L112.627 124.311L112.672 124.677L112.717 125.044L112.767 125.408L112.819 125.772L112.873 126.136L112.931 126.5L112.991 126.863L113.055 127.226L113.119 127.588L113.187 127.948L113.235 128.2L113.256 128.311L113.327 128.671L113.399 129.032L113.475 129.391L113.551 129.752L113.629 130.111L113.712 130.469L113.795 130.828L113.883 131.187L113.969 131.544L114.059 131.903L114.151 132.261L114.244 132.617L114.34 132.975L114.437 133.331L114.537 133.688L114.637 134.044L114.723 134.338L114.74 134.401L114.839 134.76L114.939 135.116L115.04 135.473L115.143 135.831L115.247 136.187L115.46 136.903L115.677 137.616L115.901 138.332L116.129 139.045L116.357 139.751L116.36 139.764L116.571 140.484L116.785 141.207L117.004 141.932L117.223 142.655L117.667 144.109L117.717 144.271L118.089 145.575L118.509 147.046L118.72 147.785L118.928 148.526L119.084 149.077L119.133 149.268L119.331 150.015L119.523 150.765L119.715 151.515L119.903 152.267L120.088 153.021L120.271 153.777L120.448 154.536L120.62 155.295L120.705 155.679L120.787 156.06L120.871 156.443L120.951 156.825L121.031 157.209L121.109 157.595L121.179 157.981L121.245 158.367L121.312 158.756L121.376 159.143L121.439 159.531L121.5 159.92L121.559 160.311L121.616 160.7L121.671 161.092L121.724 161.483L121.775 161.876L121.8 162.081L121.82 162.267L121.857 162.661L121.895 163.056L121.928 163.452L121.959 163.848L121.989 164.244L122.015 164.643L122.016 164.648V165.041L122.017 165.44L122.013 165.84L122.008 166.15L121.921 166.248L121.568 166.673L121.249 167.091L120.964 167.501L120.713 167.908L120.497 168.309L120.313 168.704L119.897 169.155L119.447 168.738L119.232 168.364L118.98 167.996L118.685 167.638L118.352 167.283L117.98 166.936L117.567 166.597L117.465 166.521L117.412 166.243L117.34 165.88L117.265 165.52L117.188 165.165L117.187 165.158L117.131 164.797L117.071 164.434L117.009 164.075L116.947 163.712L116.879 163.351L116.811 162.989L116.777 162.821L116.744 162.629L116.68 162.267L116.615 161.905L116.547 161.544L116.476 161.183L116.403 160.821L116.331 160.46L116.255 160.099L116.176 159.739L116.097 159.377L116.016 159.016L115.935 158.655L115.856 158.293L115.78 157.931L115.699 157.568L115.617 157.205L115.535 156.841L115.451 156.483L115.28 155.753L115.103 155.028L114.92 154.301L114.733 153.573L114.545 152.845L114.352 152.117L114.156 151.388L113.957 150.657L113.905 150.471L113.764 149.926L113.572 149.191L113.379 148.455L112.988 146.981L112.639 145.665L112.599 145.5L112.237 144.012L112.059 143.264L111.881 142.513L111.704 141.765L111.531 141.013L111.528 141.001L111.385 140.255L111.239 139.493L111.099 138.732L110.961 137.971L110.829 137.211L110.764 136.825L110.7 136.443L110.637 136.06L110.577 135.679L110.517 135.295L110.507 135.227L110.463 134.911L110.412 134.527L110.363 134.141L110.315 133.756L110.268 133.369L110.223 132.984L110.179 132.599L110.137 132.211L110.097 131.825L110.06 131.44L110.023 131.052L109.989 130.665L109.955 130.279L109.925 129.891L109.897 129.503L109.871 129.115L109.847 128.727L109.84 128.609L109.827 128.339L109.811 127.95L109.796 127.561L109.784 127.172L109.775 126.783L109.767 126.392L109.763 126.003L109.76 125.613V125.222L109.763 124.833L109.771 124.443L109.779 124.052L109.788 123.66L109.803 123.269L109.82 122.879L109.84 122.488L109.863 122.097L109.889 121.705L109.919 121.313L109.951 120.927L111.191 119.716L112.376 120.981Z" fill="#FAB31C"/>
<path fill-rule="evenodd" clip-rule="evenodd" d="M70.8187 129.405L70.8093 129.492L70.68 130.88L70.6773 130.924L70.5333 132.355L70.508 132.627L70.2333 133.788L69.896 135.212L69.784 135.681L69.5413 136.633L69.1773 138.051L68.812 139.467L68.7374 139.756L68.4347 140.879L67.6707 143.7L66.9027 146.52L66.7493 147.085L66.0213 149.307L65.792 150.016L65.56 150.695L65.0907 152.081L63.976 152.781L63.3787 151.607L63.6853 150.176L63.8374 149.475L64.0054 148.748L64.5293 146.467L64.6907 145.904L65.492 143.095L66.2893 140.285L66.6067 139.167L66.6893 138.881L67.0987 137.481L67.5054 136.08L67.7773 135.139L67.9147 134.68L68.3347 133.281L68.6734 132.141L68.7853 131.892L69.3627 130.58L69.3827 130.541L69.944 129.267L69.98 129.187L70.5067 128.877L70.8187 129.405Z" fill="#FAB31C"/>
<path fill-rule="evenodd" clip-rule="evenodd" d="M168.171 113.453L166.951 114.05L166.851 114.019L166.341 113.851L165.735 113.651L165.129 113.446L164.524 113.244L163.317 112.832L162.112 112.419L160.908 112.001L159.705 111.587L159.381 111.475L158.505 111.164L157.307 110.744L156.108 110.327L155.508 110.12L154.909 109.915L154.309 109.711L153.709 109.508L153.537 109.45L153.113 109.301L152.515 109.095L151.917 108.888L151.319 108.685L150.72 108.485L150.121 108.285L149.52 108.091L149.471 108.075L149.129 107.841L148.976 107.713L148.633 107.444L148.445 107.293L147.947 106.929L147.9 106.899L147.612 106.357L148.153 106.068L148.207 106.067L148.827 106.044L149.069 106.026L149.511 105.997L149.712 105.981L150.131 105.987L150.181 106.003L150.793 106.193L151.404 106.388L152.015 106.584L152.621 106.783L153.229 106.984L153.837 107.187L154.268 107.332L154.441 107.393L155.043 107.608L155.644 107.824L156.245 108.043L156.844 108.261L158.041 108.7L159.235 109.141L160.108 109.465L160.428 109.587L161.617 110.036L162.808 110.483L163.997 110.928L165.187 111.369L165.783 111.588L166.379 111.804L166.975 112.02L167.476 112.199L167.572 112.233L168.171 113.453Z" fill="#FAB31C"/>
<path fill-rule="evenodd" clip-rule="evenodd" d="M98.5467 75.2C101.996 76.5333 118.825 62.4746 117.957 63.4946C114.021 68.124 111.733 72.1907 108.887 77.7573C108.465 78.5813 107.336 80.744 107.859 81.8907C108.453 83.1933 127.403 87.8467 129.011 88.12C129.585 88.2173 107.095 91.8 106.543 92.9413C105.449 95.2013 120.867 112.965 120.353 112.577C118.78 111.391 117.209 110.201 115.648 108.992C109.335 104.103 99.1413 98.4948 98.0213 98.9188C93.7467 100.536 90.228 116.484 89.932 118.195C89.856 118.633 90.6374 95.272 86.24 95.7053C85.2387 95.804 63.048 103.284 63.4413 103.026C64.84 102.105 66.248 101.204 67.7027 100.399C71.7267 98.172 83.4787 89.9413 83.3147 89.5693C82.7507 88.2907 60.2293 81.0107 58.888 80.1987C58.416 79.912 84.1467 79.6107 84.0694 79.4693C81.46 74.656 74.276 58.7533 74.276 58.7533C74.276 58.7533 89.1293 74.144 89.8427 74.0507C90.6867 73.9413 90.8093 71.0307 90.864 70.6693C91.3267 67.58 92.9067 59.0266 93.1973 57.828C93.3307 57.28 93.192 55.78 93.5694 56.1733C94.4267 57.0653 95.8133 74.1427 98.5467 75.2Z" fill="#FCCF60"/>
</svg>
